<svg id="Logo_Main" xmlns="http://www.w3.org/2000/svg" width="93.866" height="33.5" viewBox="0 0 93.866 33.5">
  <g id="place_black_24dp" transform="translate(71 2.102)">
    <path id="Path_1" data-name="Path 1" d="M0,0H22.866V25.3H0Z" fill="none"/>
    <path id="Path_2" data-name="Path 2" d="M11.433,2C7.876,2,5,5.333,5,9.453,5,15.043,11.433,23.3,11.433,23.3s6.433-8.252,6.433-13.842C17.866,5.333,14.989,2,11.433,2Zm0,10.115a2.5,2.5,0,0,1-2.3-2.662,2.5,2.5,0,0,1,2.3-2.662,2.5,2.5,0,0,1,2.3,2.662A2.5,2.5,0,0,1,11.433,12.115Z" transform="translate(0 0)" fill="none" stroke="#ff385c" stroke-width="2"/>
  </g>
  <g id="Component_3_2" data-name="Component 3 – 2">
    <text id="WHERE" transform="translate(0 16)" fill="#ff385c" font-size="20" font-family="Bahnschrift" font-weight="700"><tspan x="0" y="0">WHERE</tspan></text>
    <text id="to" transform="translate(51 29.5)" fill="#ff385c" font-size="20" font-family="Bahnschrift" font-weight="700"><tspan x="0" y="0">to</tspan></text>
  </g>
  <line id="Line_1" data-name="Line 1" y2="27" transform="translate(71.287 2.463)" fill="none" stroke="#ff385c" stroke-width="1.5"/>
</svg>
